<?xml version="1.0" standalone="no"?>
<!DOCTYPE svg PUBLIC "-//W3C//DTD SVG 20010904//EN"
 "http://www.w3.org/TR/2001/REC-SVG-20010904/DTD/svg10.dtd">
<svg version="1.0" xmlns="http://www.w3.org/2000/svg"
 width="512.000000pt" height="512.000000pt" viewBox="0 0 512.000000 512.000000"
 preserveAspectRatio="xMidYMid meet">
<metadata>
Created by potrace 1.14, written by Peter Selinger 2001-2017
</metadata>
<g transform="translate(0.000000,512.000000) scale(0.100000,-0.100000)"
fill="#000000" stroke="none">
<path d="M1315 4908 c-96 -102 -149 -177 -206 -293 -68 -141 -100 -269 -104
-421 -1 -66 1 -145 6 -175 5 -30 11 -67 13 -84 20 -120 87 -262 213 -451 55
-82 107 -162 117 -179 l17 -30 -65 -108 c-36 -60 -68 -118 -72 -129 -6 -19
-11 -20 -78 -14 -267 25 -527 187 -678 423 -29 45 -56 82 -61 83 -4 0 -66 -29
-137 -65 l-129 -65 36 -62 c178 -306 491 -533 826 -598 37 -8 67 -18 67 -22 0
-5 -20 -68 -45 -141 -25 -73 -45 -140 -45 -149 0 -21 -9 -26 -56 -33 -297 -44
-577 -201 -776 -435 -61 -72 -160 -232 -151 -241 11 -11 251 -129 262 -129 5
0 12 7 15 17 4 9 26 46 51 82 87 130 220 248 361 319 40 20 188 72 206 72 6 0
7 -27 2 -72 -4 -40 -8 -144 -8 -231 l-1 -158 -56 -23 c-78 -31 -180 -89 -247
-138 -113 -84 -244 -231 -310 -349 -54 -97 -116 -265 -127 -344 -2 -16 -7 -46
-10 -65 -12 -60 -12 -550 -1 -559 9 -6 257 -8 288 -2 3 0 6 110 7 243 0 134 3
257 6 273 14 77 17 93 32 140 67 216 215 390 420 494 33 17 63 31 66 31 3 0 8
-15 12 -32 4 -18 13 -46 20 -63 8 -16 25 -57 39 -90 107 -260 311 -510 562
-691 176 -127 441 -240 654 -279 14 -3 36 -7 50 -9 122 -24 397 -24 525 0 242
44 476 136 656 257 72 49 72 49 170 131 205 171 384 432 475 693 15 43 28 79
30 81 1 2 33 -12 71 -31 203 -102 357 -291 424 -519 20 -65 22 -103 26 -355
l5 -281 152 1 151 2 -1 270 c0 218 -4 287 -19 360 -19 98 -59 214 -101 297
-114 225 -342 438 -566 530 l-77 31 2 136 c1 75 -2 178 -6 229 -5 50 -6 92 -4
92 21 0 156 -49 212 -77 172 -86 292 -202 409 -395 l16 -28 123 61 c67 34 128
66 135 71 16 13 -25 89 -106 197 -191 256 -477 432 -785 481 l-76 13 -41 131
c-23 72 -48 143 -56 158 -14 26 -13 28 13 34 229 50 361 106 523 220 132 93
241 210 335 359 66 106 75 90 -100 176 l-119 58 -26 -48 c-59 -106 -179 -238
-286 -311 -113 -78 -286 -142 -420 -155 l-69 -7 -22 46 c-20 39 -65 117 -113
193 -13 20 -5 34 105 199 196 294 249 442 249 699 0 144 -7 189 -51 329 -48
154 -126 284 -252 416 l-80 85 -106 -105 c-58 -58 -104 -108 -103 -112 2 -4
28 -33 59 -65 184 -192 261 -415 226 -658 -10 -74 -52 -195 -87 -255 -45 -77
-163 -250 -169 -249 -3 0 -26 24 -51 52 -55 63 -187 184 -256 235 -115 84
-106 72 -93 117 6 22 12 74 14 115 7 267 -163 505 -423 593 -96 32 -279 31
-371 -3 -294 -105 -461 -389 -406 -685 l12 -65 -86 -62 c-100 -72 -182 -145
-268 -240 -23 -25 -46 -49 -51 -52 -14 -8 -183 256 -214 334 -76 194 -68 419
21 600 50 101 73 132 175 238 l50 52 -104 105 c-58 58 -107 105 -110 105 -3 0
-37 -33 -75 -72z"/>
</g>
</svg>
